<?xml version="1.0" encoding="utf-8"?>
<!-- Generator: Adobe Illustrator 23.0.1, SVG Export Plug-In . SVG Version: 6.00 Build 0)  -->
<svg version="1.1" id="Layer_1" xmlns="http://www.w3.org/2000/svg" xmlns:xlink="http://www.w3.org/1999/xlink" x="0px" y="0px"
	 viewBox="0 0 200 200" style="enable-background:new 0 0 200 200;" xml:space="preserve">
<style type="text/css">
	.st0{fill:#FFFFFF;}
</style>
<path class="st0" d="M100,75c-13.8,0-25,11.2-25,25s11.2,25,25,25s25-11.2,25-25S113.8,75,100,75z M100,112.5
	c-6.9,0-12.5-5.6-12.5-12.5c0-6.9,5.6-12.5,12.5-12.5c6.9,0,12.5,5.6,12.5,12.5C112.5,106.9,106.9,112.5,100,112.5z M181.2,93.8
	h-0.2C178,53.9,146.1,22,106.2,18.9v-0.2c0-3.5-2.8-6.2-6.2-6.2s-6.2,2.8-6.2,6.2v0.2C53.9,22,22,53.9,18.9,93.8h-0.2
	c-3.5,0-6.2,2.8-6.2,6.2s2.8,6.2,6.2,6.2h0.2c3.1,39.9,34.9,71.8,74.8,74.8v0.2c0,3.5,2.8,6.2,6.2,6.2s6.2-2.8,6.2-6.2v-0.2
	c39.9-3.1,71.8-34.9,74.8-74.8h0.2c3.5,0,6.2-2.8,6.2-6.2S184.7,93.8,181.2,93.8z M106.2,168.6v-12.3c0-3.5-2.8-6.2-6.2-6.2
	s-6.2,2.8-6.2,6.2v12.3c-33-3-59.3-29.3-62.3-62.3h12.3c3.5,0,6.2-2.8,6.2-6.2s-2.8-6.2-6.2-6.2H31.4c3-33,29.3-59.3,62.3-62.3v12.3
	c0,3.5,2.8,6.2,6.2,6.2s6.2-2.8,6.2-6.2V31.4c33,3,59.3,29.3,62.3,62.3h-12.3c-3.5,0-6.2,2.8-6.2,6.2s2.8,6.2,6.2,6.2h12.3
	C165.6,139.2,139.2,165.6,106.2,168.6z"/>
</svg>
