<?xml version="1.0" encoding="utf-8"?>
<!-- Generator: Adobe Illustrator 23.0.1, SVG Export Plug-In . SVG Version: 6.00 Build 0)  -->
<svg version="1.1" id="Layer_1" xmlns="http://www.w3.org/2000/svg" xmlns:xlink="http://www.w3.org/1999/xlink" x="0px" y="0px"
	 viewBox="0 0 200 200" style="enable-background:new 0 0 200 200;" xml:space="preserve">
<style type="text/css">
	.st0{fill:#FFFFFF;}
</style>
<path class="st0" d="M156.2,75c0-31.2-25-56.2-56.2-56.2S43.8,43.8,43.8,75c0,21.2,11.2,39.4,28.8,48.7c-23.8,9.4-41.9,30-46.9,56.3
	c-0.6,3.1,1.2,6.9,5,7.5h1.2c3.1,0,5.6-1.9,6.3-5c5.6-29.4,31.2-50.6,61.2-51.2h1.2C131.2,131.2,156.2,106.2,156.2,75z M56.2,75
	c0-24.4,19.4-43.8,43.8-43.8s43.8,19.4,43.8,43.8c0,23.8-19.4,43.1-43.1,43.8h-1.9C75,118.1,56.2,98.8,56.2,75z M141.2,131.9
	c-3.1-1.9-6.9-1.2-8.8,1.9c-1.9,3.1-1.2,6.9,1.9,8.8c14.4,10,24.4,23.7,27.5,40c0.6,3.1,3.1,5,6.2,5h1.2c3.1-0.6,5.6-3.8,5-7.5
	C170.6,160.6,158.8,143.7,141.2,131.9L141.2,131.9z"/>
</svg>
