<?xml version="1.0" encoding="utf-8"?>
<!-- Generator: Adobe Illustrator 23.0.1, SVG Export Plug-In . SVG Version: 6.00 Build 0)  -->
<svg version="1.1" id="Layer_1" xmlns="http://www.w3.org/2000/svg" xmlns:xlink="http://www.w3.org/1999/xlink" x="0px" y="0px"
	 viewBox="0 0 200 200" style="enable-background:new 0 0 200 200;" xml:space="preserve">
<style type="text/css">
	.st0{fill:#FFFFFF;}
	.st1{fill:none;}
	.st2{font-family:'Roboto-Regular';}
	.st3{font-size:100px;}
</style>
<path class="st0" d="M183.5,144.1c-4-1.6-15.7-6.4-27.7-11.1c12.1-13.2,19.1-30.6,19.1-48.6c0-39.6-32.2-71.9-71.9-71.9
	c-39.6,0-71.9,32.2-71.9,71.9c0,3.2,0.2,6.3,0.6,9.4c0.5,3.4,3.6,5.8,7,5.4c3.4-0.4,5.8-3.6,5.4-7c-0.3-2.5-0.5-5.1-0.5-7.7
	c0-32.7,26.6-59.4,59.4-59.4c32.7,0,59.4,26.6,59.4,59.4c0,16.6-6.7,31.9-18.8,43.3c-0.2,0.1-0.2,0.3-0.4,0.5
	c-8.4-3.1-15.5-5.6-18.3-6c-4.9-0.8-9.5,1.5-12.3,5.6c-2.3,3.5-2.9,7.6-1.6,11c0.8,2.1,4,6.4,7.8,11.2c-9.1,0-22.9-1.2-37.7-6.9
	c-6.1-2.4-13.6-10.3-20.1-17.3c-9.4-10-18.2-19.4-27.8-19.4c-3.6,0-7,1.3-9.8,3.9c-3.6,3.2-6.9,9.4-2.3,21.3
	c8.3,21.9,40.7,55.7,66.7,55.7h93.4c3.5,0,6.2-2.8,6.2-6.2v-31.2C187.4,147.4,185.9,145.1,183.5,144.1z M174.9,174.9H88l-0.2,6.2
	v-6.2c-19.1,0-48.3-29.7-55.1-47.6c-2-5.2-1.3-7.3-1-7.5c0.8-0.7,1.3-0.7,1.5-0.7c4.2,0,12.6,8.9,18.7,15.4c7.9,8.4,16,17,24.7,20.4
	c16.6,6.4,32.2,7.8,42.3,7.8c8.1,0,13.2-0.9,13.4-0.9c2.2-0.4,4.1-1.9,4.8-4c0.8-2.1,0.4-4.5-1.1-6.2c-5.3-6.3-11.4-14-13.1-16.7
	c0.1-0.1,0.1-0.2,0.1-0.2c4.5,0.7,31.7,11.3,51.8,19.5L174.9,174.9L174.9,174.9z"/>
<rect x="65.2" y="41.7" class="st1" width="72.4" height="86.6"/>
<text transform="matrix(1 0 0 1 73.3154 116.7305)" class="st0 st2 st3">$</text>
</svg>
