<?xml version="1.0" encoding="utf-8"?>
<!-- Generator: Adobe Illustrator 23.0.1, SVG Export Plug-In . SVG Version: 6.00 Build 0)  -->
<svg version="1.1" id="Layer_1" xmlns="http://www.w3.org/2000/svg" xmlns:xlink="http://www.w3.org/1999/xlink" x="0px" y="0px"
	 viewBox="0 0 200 200" style="enable-background:new 0 0 200 200;" xml:space="preserve">
<style type="text/css">
	.st0{fill:#FFFFFF;}
</style>
<path class="st0" d="M186.2,177.4l-29.8-31.9c12.1-14.6,18.7-32.7,18.7-51.8c0-44.8-36.4-81.2-81.3-81.2
	c-44.8,0-81.2,36.4-81.2,81.2S49.1,175,93.9,175c11.7,0,23.1-2.5,33.6-7.3c3.1-1.4,4.5-5.1,3.1-8.3c-1.4-3.1-5.2-4.5-8.3-3.1
	c-9,4.1-18.5,6.1-28.5,6.1c-37.9,0-68.7-30.8-68.7-68.7C25.2,55.8,56,25,93.9,25c37.9,0,68.8,30.8,68.8,68.7
	c0,17.8-6.8,34.8-19.2,47.6c-2.4,2.5-2.3,6.4,0.2,8.8c0.2,0.2,0.4,0.3,0.6,0.4c0.2,0.3,0.3,0.5,0.5,0.8l32.3,34.6
	c1.2,1.3,2.9,2,4.6,2c1.5,0,3.1-0.6,4.3-1.7C188.4,183.9,188.6,179.9,186.2,177.4z"/>
</svg>
